<?xml version="1.0" encoding="UTF-8"?> <svg xmlns="http://www.w3.org/2000/svg" id="Layer_1" version="1.1" viewBox="0 0 425.9 112.3"><polygon points="411.6 50.5 421.5 25.8 408.8 15.2 384.1 29.9 411.6 50.5" fill="#fff"></polygon><path d="M405.6,70.7s-5,14.9-14.9,14.1l-17.3-1.9c8.4-3.2,10.6-11,10.6-11,0-9.2-5.5-13-8.1-13.4-3.6-.5-19.5-2.9-19.5-2.9-6.7-.9-4.5-6.7-4.5-6.7l3.5-10.8s1.3-4.9,8.5-5.4c0,0,7-.5,20.8,3.7,0,0,7.7,2.3,18.7,8.7,0,0,5.5,2.5,5.3,8.8,0,0-.2,10.3-3.2,16.7Z" fill="#fff"></path><polygon points="357.9 29.9 291.3 39.8 291.2 51.4 354.6 59.5 351 51.1 357.9 29.9" fill="#fff"></polygon><polygon points="272.6 37.1 264.7 36.7 256.3 44.8 256.7 51.1 276.1 51.7 279.4 37 272.6 37.1" fill="#fff"></polygon><path d="M258.1,52.5s19.9.7,48.2,2.3c26.3,1.5,69,7.5,69,7.5,7.7,1.6,7.7,8.5,7.3,10.9-.4,2.3-3.7,9.3-10.6,8.3-6.9-1-9.4-1.4-9.4-1.4-13.4-1.6-29.5-3.8-47.6-5.5-18.1-1.6-51.8-3.1-51.8-3.1-1.1,0-4.1-1.6-5-5.8-.6-3-2-7.9-2-10.4s1.9-2.7,1.9-2.7Z" fill="#fff"></path><polygon points="27.8 16.9 38.6 24.5 43.5 27.5 22.3 30.8 1.8 41.7 3.1 35.1 5.2 25.2 27.8 16.9" fill="#fff"></polygon><path d="M98.8,71.9c-5.3.6-10-1.9-10.9-5.7,0-.2-.1-.4-.1-.7-.1-.8,0-1.6.2-2.4,1-3.2,4.5-5.8,9-6.4,4.3-.5,8.3,1.1,10.1,3.8.5.8.9,1.6,1,2.6,0,.1,0,.2,0,.3.2,4-3.8,7.8-9.2,8.4Z" fill="#fff"></path><path d="M46.7,66.5c-2.8,3.3-1.2,7.4-1.2,7.4.2,4.4,5.8,7.4,5.8,7.4,0,0-4.3,1-6.9,1.3-2.6.4-5,.6-7,.4-2.1-.2-4-.4-6.6-1.4-2.7-1-10.6-4.1-14.2-5.7-3.6-1.5-4.1-1.8-5.8-2.7-1.6-1-5.8-3.9-6.6-9.5-.8-5.6-1.2-10-.9-12.5.3-2.5.9-6.2,3.6-8,0,0,10.3-6.4,25.7-8.8,0,0,22.1-3.5,27.3-1.4,0,0,3.2,1.4,6.6,7.8.7,1.3,1.7,3.6,2.3,5.2.5,1.6,1.2,5.3.9,7-.2,1.8-.4,3.6-2.5,5.3-2.1,1.7-3.3,2-5.6,2.7-2.2.7-6.5,1.6-8.1,1.8-4.5.7-6.7,3.6-6.7,3.6Z" fill="#fff"></path><path d="M62.2,32.3l54.4,3.4s2.4,2.3,2.6,2.1,1.4,9.6,1.4,9.6l-3.6,2.7-49.6,11.6,1.8-12.3-6.9-17.2Z" fill="#fff"></path><path d="M245.8,72.5s-1.5,1.8-7.9,1.3c-6.3-.5-2.7-.2-6.7-.4-4.4-.2-10.3-.5-16.4-.5s-12.3.3-16.8.5c-4.1.2-.4,0-6.7.4-6.3.5-7.9-1.3-7.9-1.3-3-2.2-2.6-8.6-2.6-8.6.6-7,1.1-9.5,2.7-14.7,1.6-5.1,7.2-7.1,7.2-7.1,9-3.2,18.7-3.1,24.3-3.1s14.4-.1,23.4,3.1c0,0,5.6,1.9,7.2,7.1,1.6,5.1,2.1,7.6,2.7,14.7,0,0,.5,6.4-2.6,8.6Z" fill="#fff" fill-rule="evenodd"></path><g><g><path d="M14,106.7c0,.7-.2,1.4-.5,2-.3.6-.7,1.1-1.2,1.6-.5.4-1.1.8-1.8,1s-1.5.4-2.4.4-1.8-.2-2.5-.5-1.4-.8-1.9-1.4-.9-1.3-1.2-2.2c-.3-.9-.4-1.8-.4-2.9v-.8c0-1.1.1-2,.4-2.9.3-.9.7-1.6,1.2-2.2.5-.6,1.2-1.1,1.9-1.4.7-.3,1.6-.5,2.5-.5s1.7.1,2.5.4,1.3.6,1.8,1.1c.5.5.9,1,1.2,1.6s.5,1.3.5,2h-3.4c0-.4,0-.7-.2-1.1,0-.3-.2-.6-.4-.8-.2-.2-.5-.4-.8-.5s-.7-.2-1.2-.2-.8,0-1.1.2c-.3.2-.6.4-.8.7-.2.3-.4.8-.5,1.3-.1.5-.2,1.2-.2,1.9v.8c0,.8,0,1.4.1,1.9,0,.5.2,1,.4,1.3.2.3.5.6.8.7.3.2.7.2,1.2.2.8,0,1.4-.2,1.8-.6s.6-1,.7-1.8h3.4Z" fill="#fff"></path><path d="M27.6,111.6h-3.4v-5.9h-5v5.9h-3.4v-14.2h3.4v5.6h5v-5.6h3.4v14.2Z" fill="#fff"></path><path d="M38,108.9h-4.7l-.8,2.7h-3.7l5.2-14.2h3.2l5.3,14.2h-3.7l-.8-2.7ZM34.1,106.3h3.1l-1.5-4.9-1.5,4.9Z" fill="#fff"></path><path d="M48.1,97.3l3.2,9.9,3.2-9.9h4.5v14.2h-3.4v-3.3l.3-6.8-3.4,10.1h-2.3l-3.4-10.1.3,6.8v3.3h-3.4v-14.2h4.5Z" fill="#fff"></path><path d="M64.8,106.7v4.8h-3.4v-14.2h5.7c.9,0,1.6.1,2.3.4s1.3.6,1.7,1c.5.4.8.9,1.1,1.5.3.6.4,1.2.4,1.9s-.1,1.3-.4,1.9c-.3.6-.6,1-1.1,1.4-.5.4-1.1.7-1.7.9-.7.2-1.5.3-2.3.3h-2.2ZM64.8,104.1h2.2c.4,0,.7,0,.9-.1.3,0,.5-.2.6-.4.2-.2.3-.4.4-.6,0-.2.1-.5.1-.8s0-.6-.1-.8c0-.3-.2-.5-.4-.7-.2-.2-.4-.4-.6-.5-.3-.1-.6-.2-.9-.2h-2.2v4.1Z" fill="#fff"></path><path d="M81.2,108.9h-4.7l-.8,2.7h-3.7l5.2-14.2h3.2l5.3,14.2h-3.7l-.8-2.7ZM77.3,106.3h3.1l-1.5-4.9-1.5,4.9Z" fill="#fff"></path><path d="M97.8,109.8c-.2.2-.4.4-.8.6-.3.2-.7.4-1.2.6-.5.2-1,.4-1.6.5-.6.1-1.3.2-2.1.2s-1.8-.2-2.6-.5c-.8-.3-1.4-.8-2-1.3-.5-.6-1-1.3-1.3-2.2-.3-.9-.4-1.8-.4-2.9v-.8c0-1.1.1-2.1.4-2.9.3-.9.7-1.6,1.3-2.2.5-.6,1.2-1,1.9-1.3.7-.3,1.6-.5,2.4-.5s1.8.1,2.5.4c.7.2,1.3.6,1.8,1,.5.4.8.9,1.1,1.5.2.6.4,1.2.5,2h-3.3c0-.4-.1-.7-.2-.9-.1-.3-.3-.5-.4-.7-.2-.2-.4-.3-.7-.4-.3,0-.6-.1-1-.1s-.8,0-1.1.3c-.3.2-.6.4-.9.8-.2.4-.4.8-.5,1.3-.1.5-.2,1.2-.2,1.9v.8c0,1.4.2,2.5.7,3.2.5.7,1.2,1.1,2.3,1.1s.5,0,.7,0c.2,0,.4,0,.6-.1.2,0,.3-.1.4-.2.1,0,.2-.1.3-.2v-2.2h-2.4v-2.4h5.8v5.8Z" fill="#fff"></path><path d="M111.8,111.6h-3.4l-5-8.8v8.8h-3.4v-14.2h3.4l5,8.8v-8.8h3.4v14.2Z" fill="#fff"></path><path d="M123,105.5h-5.4v3.4h6.4v2.6h-9.8v-14.2h9.8v2.6h-6.4v3h5.4v2.5Z" fill="#fff"></path><path d="M138.4,108.9h-4.7l-.8,2.7h-3.7l5.2-14.2h3.2l5.3,14.2h-3.7l-.8-2.7ZM134.6,106.3h3.1l-1.5-4.9-1.5,4.9Z" fill="#fff"></path><path d="M156,111.6h-3.4l-5-8.8v8.8h-3.4v-14.2h3.4l5,8.8v-8.8h3.4v14.2Z" fill="#fff"></path><path d="M158.3,111.6v-14.2h4.6c1,0,1.8.2,2.7.5.8.3,1.5.8,2.1,1.4.6.6,1,1.3,1.4,2.2.3.8.5,1.8.5,2.8v.6c0,1-.2,1.9-.5,2.8-.3.8-.8,1.5-1.4,2.1-.6.6-1.3,1.1-2.1,1.4-.8.3-1.7.5-2.6.5h-4.6ZM161.8,100v8.9h1.2c1,0,1.7-.3,2.3-1,.5-.7.8-1.7.8-3.1v-.6c0-1.4-.3-2.4-.8-3.1-.5-.7-1.3-1-2.3-1h-1.2Z" fill="#fff"></path><path d="M184.3,108.9h-4.7l-.8,2.7h-3.7l5.2-14.2h3.2l5.3,14.2h-3.7l-.8-2.7ZM180.4,106.3h3.1l-1.5-4.9-1.5,4.9Z" fill="#fff"></path><path d="M193.5,111.6h-3.4v-14.2h3.4v14.2Z" fill="#fff"></path><path d="M203.2,107.8c0-.2,0-.4,0-.6,0-.2-.2-.3-.4-.5-.2-.2-.4-.3-.8-.5-.3-.2-.8-.3-1.3-.5-.6-.2-1.2-.4-1.8-.7-.6-.3-1.1-.6-1.5-.9s-.8-.8-1.1-1.3c-.3-.5-.4-1-.4-1.7s.1-1.2.4-1.7c.3-.5.7-.9,1.1-1.3.5-.3,1.1-.6,1.7-.8.7-.2,1.4-.3,2.2-.3s1.5.1,2.1.3c.7.2,1.2.5,1.7.9.5.4.8.8,1.1,1.4.3.5.4,1.2.4,1.8h-3.4c0-.3,0-.5-.1-.7,0-.2-.2-.4-.4-.6-.2-.2-.4-.3-.6-.4-.2,0-.5-.1-.9-.1s-.6,0-.9.1c-.2,0-.5.2-.6.3-.2.1-.3.3-.4.5,0,.2-.1.4-.1.6s0,.4.2.6c.1.2.3.3.5.5s.5.3.8.4c.3.1.7.3,1.1.4.8.2,1.4.5,2,.8.6.3,1.1.6,1.5,1,.4.4.7.8.9,1.3.2.5.3,1,.3,1.6s-.1,1.2-.4,1.7c-.2.5-.6.9-1.1,1.3-.5.3-1,.6-1.7.8-.6.2-1.4.3-2.2.3s-1,0-1.5-.1c-.5,0-.9-.2-1.4-.4-.4-.2-.8-.4-1.2-.6-.4-.3-.7-.6-1-.9-.3-.4-.5-.8-.7-1.2-.2-.5-.2-1-.2-1.5h3.4c0,.4,0,.8.2,1,.1.3.3.5.5.7.2.2.5.3.8.4.3,0,.7.1,1.1.1s.6,0,.8-.1c.2,0,.4-.2.6-.3.1-.1.3-.3.3-.4,0-.2.1-.3.1-.5Z" fill="#fff"></path><path d="M220.4,111.6h-3.4v-5.9h-5v5.9h-3.4v-14.2h3.4v5.6h5v-5.6h3.4v14.2Z" fill="#fff"></path><path d="M226.2,111.6h-3.4v-14.2h3.4v14.2Z" fill="#fff"></path><path d="M240.6,111.6h-3.4v-5.9h-5v5.9h-3.4v-14.2h3.4v5.6h5v-5.6h3.4v14.2Z" fill="#fff"></path><path d="M246.5,111.6h-3.4v-14.2h3.4v14.2Z" fill="#fff"></path><path d="M253.7,106.3l-1.4,1.5v3.8h-3.4v-14.2h3.4v6.3l1.2-1.8,3.1-4.5h4.2l-4.8,6.3,4.8,7.9h-4.1l-3-5.3Z" fill="#fff"></path><path d="M275.6,105.9h-5.5v5.7h-3.4v-14.2h9.5v2.6h-6.1v3.3h5.5v2.6Z" fill="#fff"></path><path d="M281.2,111.6h-3.4v-14.2h3.4v14.2Z" fill="#fff"></path><path d="M289,106.5h-1.9v5h-3.4v-14.2h5.6c.8,0,1.6,0,2.2.3.7.2,1.2.5,1.7.8.5.4.8.8,1.1,1.3.2.5.4,1.2.4,1.9s0,1-.2,1.5c-.1.4-.3.8-.5,1.1-.2.3-.5.6-.8.8-.3.2-.6.4-1,.6l3,5.7h0c0,.1-3.7.1-3.7.1l-2.5-5ZM287.1,103.9h2.2c.7,0,1.1-.2,1.5-.5s.5-.8.5-1.4-.2-1.1-.5-1.4-.8-.5-1.5-.5h-2.2v3.9Z" fill="#fff"></path><path d="M303.7,107.8c0-.2,0-.4,0-.6s-.2-.3-.4-.5-.4-.3-.8-.5c-.3-.2-.8-.3-1.3-.5-.6-.2-1.2-.4-1.8-.7s-1.1-.6-1.5-.9-.8-.8-1.1-1.3c-.3-.5-.4-1-.4-1.7s.1-1.2.4-1.7c.3-.5.7-.9,1.1-1.3s1.1-.6,1.7-.8c.7-.2,1.4-.3,2.2-.3s1.5.1,2.1.3c.7.2,1.2.5,1.7.9.5.4.8.8,1.1,1.4.3.5.4,1.2.4,1.8h-3.4c0-.3,0-.5-.1-.7s-.2-.4-.4-.6-.4-.3-.6-.4c-.2,0-.5-.1-.9-.1s-.6,0-.9.1c-.2,0-.5.2-.6.3s-.3.3-.4.5c0,.2-.1.4-.1.6s0,.4.2.6c.1.2.3.3.5.5.2.2.5.3.8.4.3.1.7.3,1.1.4.8.2,1.4.5,2,.8.6.3,1.1.6,1.5,1,.4.4.7.8.9,1.3.2.5.3,1,.3,1.6s-.1,1.2-.4,1.7c-.2.5-.6.9-1.1,1.3-.5.3-1,.6-1.7.8-.6.2-1.4.3-2.2.3s-1,0-1.5-.1c-.5,0-.9-.2-1.4-.4-.4-.2-.8-.4-1.2-.6s-.7-.6-1-.9c-.3-.4-.5-.8-.7-1.2-.2-.5-.2-1-.2-1.5h3.4c0,.4,0,.8.2,1,.1.3.3.5.5.7s.5.3.8.4.7.1,1.1.1.6,0,.8-.1c.2,0,.4-.2.6-.3.1-.1.3-.3.3-.4,0-.2.1-.3.1-.5Z" fill="#fff"></path><path d="M320.1,100h-4.3v11.6h-3.4v-11.6h-4.2v-2.6h11.9v2.6Z" fill="#fff"></path><path d="M338.4,111.6h-3.4l-5-8.8v8.8h-3.4v-14.2h3.4l5,8.8v-8.8h3.4v14.2Z" fill="#fff"></path><path d="M348.7,108.9h-4.7l-.8,2.7h-3.7l5.2-14.2h3.2l5.3,14.2h-3.7l-.8-2.7ZM344.9,106.3h3.1l-1.5-4.9-1.5,4.9Z" fill="#fff"></path><path d="M363.8,100h-4.3v11.6h-3.4v-11.6h-4.2v-2.6h11.9v2.6Z" fill="#fff"></path><path d="M368.7,111.6h-3.4v-14.2h3.4v14.2Z" fill="#fff"></path><path d="M383.1,104.7c0,1.1-.2,2.1-.5,2.9-.3.9-.7,1.6-1.3,2.2s-1.2,1.1-2,1.4-1.6.5-2.5.5-1.8-.2-2.5-.5c-.8-.3-1.4-.8-2-1.4s-1-1.3-1.3-2.2c-.3-.9-.5-1.8-.5-2.9v-.6c0-1.1.2-2.1.5-2.9.3-.9.7-1.6,1.3-2.2s1.2-1.1,2-1.4,1.6-.5,2.5-.5,1.7.2,2.5.5c.8.3,1.4.8,2,1.4s1,1.3,1.3,2.2.5,1.8.5,2.9v.6ZM379.6,104.1c0-1.4-.2-2.5-.7-3.2s-1.1-1.1-2-1.1-1.6.4-2.1,1.1c-.5.7-.7,1.8-.7,3.2v.6c0,1.4.2,2.5.7,3.2.5.7,1.1,1.1,2.1,1.1s1.5-.4,2-1.1c.5-.7.7-1.8.7-3.2v-.6Z" fill="#fff"></path><path d="M396.9,111.6h-3.4l-5-8.8v8.8h-3.4v-14.2h3.4l5,8.8v-8.8h3.4v14.2Z" fill="#fff"></path><path d="M406.4,107.8c0-.2,0-.4,0-.6s-.2-.3-.4-.5-.4-.3-.8-.5c-.3-.2-.8-.3-1.3-.5-.6-.2-1.2-.4-1.8-.7s-1.1-.6-1.5-.9c-.4-.4-.8-.8-1.1-1.3-.3-.5-.4-1-.4-1.7s.1-1.2.4-1.7c.3-.5.7-.9,1.1-1.3s1.1-.6,1.7-.8c.7-.2,1.4-.3,2.2-.3s1.5.1,2.1.3,1.2.5,1.7.9c.5.4.8.8,1.1,1.4s.4,1.2.4,1.8h-3.4c0-.3,0-.5-.1-.7,0-.2-.2-.4-.4-.6s-.4-.3-.6-.4c-.2,0-.5-.1-.9-.1s-.6,0-.9.1c-.2,0-.5.2-.6.3s-.3.3-.4.5c0,.2-.1.4-.1.6s0,.4.2.6c.1.2.3.3.5.5s.5.3.8.4c.3.1.7.3,1.1.4.8.2,1.4.5,2,.8.6.3,1.1.6,1.5,1,.4.4.7.8.9,1.3.2.5.3,1,.3,1.6s-.1,1.2-.4,1.7c-.3.5-.6.9-1.1,1.3-.5.3-1,.6-1.7.8-.6.2-1.4.3-2.2.3s-1,0-1.5-.1c-.5,0-.9-.2-1.4-.4-.4-.2-.8-.4-1.2-.6-.4-.3-.7-.6-1-.9-.3-.4-.5-.8-.7-1.2-.2-.5-.2-1-.2-1.5h3.4c0,.4,0,.8.2,1s.3.5.5.7c.2.2.5.3.8.4s.7.1,1.1.1.6,0,.8-.1c.2,0,.4-.2.6-.3.2-.1.3-.3.3-.4,0-.2.1-.3.1-.5Z" fill="#fff"></path></g><g><g><path d="M251.4,57.3c-1.1-12.4-7.1-18.7-7.1-18.7-7.9-8.9-21.8-9-29.6-9s-21.7,0-29.6,9c0,0-6,6.3-7.1,18.7,0,0-1.3,9.4,1,15,2.3,5.7,5.3,5.6,9.7,5.5,4.3-.1,18.7-.6,25.3-.6,6.6,0,22.3.5,26.6.6s7.4.1,9.7-5.5c2.3-5.7,1-15,1-15ZM244.3,71.7s-1.5,1.7-7.5,1.3c-6-.4-2.5-.2-6.4-.4-4.2-.2-9.8-.4-15.6-.4s-11.8.2-16,.4c-3.9.2-.4,0-6.4.4-6,.4-7.5-1.3-7.5-1.3-2.9-2.1-2.4-8.2-2.4-8.2.6-6.7,1-9.1,2.6-14,1.5-4.9,6.9-6.7,6.9-6.7,8.5-3.1,17.8-2.9,23.2-2.9s13.7-.1,22.2,2.9c0,0,5.4,1.8,6.9,6.7,1.5,4.9,2,7.3,2.6,14,0,0,.5,6.1-2.4,8.2Z" fill-rule="evenodd"></path><path d="M208.4,67.1h-9.6c-5.6,0-4.9-4.8-4.9-4.8,0,0,.6-5.7,1.4-10.6.9-5.2,4-5.5,4-5.5,0,0,5.8-1.2,9.9-2,2.5-.5,3.5-1.7,3.8-2.5-5.1,0-12.8.2-19.8,2.6,0,0-5,1.6-6.5,5.9-1.4,4.3-1.9,6.4-2.4,12.3,0,0-.4,5.4,2.3,7.2,0,0,1.4,1.5,7,1.1,5.7-.4,2.4-.2,6-.3,3.4-.1,8-.3,12.6-.4-1.3-3.6-4-3.2-4-3.2Z" fill="#c50a27"></path><path d="M226.5,57.1" fill="#c50a27"></path><path d="M235.5,62.9c0,.1,0,.3,0,.4v7.8c5.6.4,7-1.1,7-1.1,2.7-1.9,2.3-7.2,2.3-7.2-.5-5.9-1-8-2.4-12.3-1.4-4.3-6.5-5.9-6.5-5.9-7.7-2.6-15.4-2.6-20.4-2.6v28.5c3.3,0,6.5,0,9.4.2-1-.2-4.4-1-4.4-4.5v-20.8s2.7,0,7.1,1c0,0,5.9,1.3,6.6,5.1,0,0,.2,1,.4,1.8,0,0,.7,3.4-2.3,3.4,0,0-2.6,0-6.5,0,0,0-.3,0-.3.4,0,0,0,.4.5.4,0,0,2.6,0,5.2,0,2.4,0,4.3,2.6,4.3,5.6Z" fill="#c50a27"></path><path d="M209,56.7s.8-1,2.1-1,2.4-.3,2.4-1.2v-1.6s-.8,1-2.1,1-2.4.3-2.4,1.2v1.6Z" fill="#c50a27"></path></g><g><path d="M362,69.8l-2.4-.3c-1.2,0-2.2.8-2.3,2l-.3,8.2h-1l.4-8.6c0-1.2-.8-2.2-2-2.3h-1c0-.1-17-1.7-17-1.7l-2.2-.2c-1.2,0-2.2.9-2.3,2.1l-.4,7h-1l.4-7.3c0-1.2-.7-2.2-1.9-2.3h-1.2c0,0-14.2-1.1-14.2-1.1l-2.4-.2c-1.2,0-2.2.9-2.2,2.1l-.5,6.5h-1l.5-6.7c0-1.2-.8-2.2-2-2.3h-1.1c0,0-12.7-.9-12.7-.9l-2.4-.2c-1.2,0-2.2.8-2.3,2l-.5,6.7h-1l.5-6.7c0-1.2-.8-2.2-2-2.3h-1.4c0-.1-13.2-.9-13.2-.9v-1.4l13.5.9h1.2c1.2.1,2.2-.8,2.3-2l.3-6.1h1l-.3,6.1c0,1.2.8,2.3,2,2.4h2.4c0,.1,12.6,1,12.6,1h1.4c1.2.2,2.2-.7,2.2-1.9l.5-6.8h1l-.5,6.9c0,1.2.8,2.3,2,2.3l2.5.2,13.8,1h1.4c1.2.2,2.2-.8,2.2-2l.3-6.5h1l-.3,6.7c0,1.2.9,2.2,2.1,2.3l2.2.2s12.3,1.1,16.8,1.7l1.1.2c1.2,0,2.2-.8,2.3-2l.5-5.9h1l-.5,6.3c0,1.2.8,2.2,2,2.3l2.3.3s7.1,1,11.1,2.1,7.2,3.1,7.8,6.9c0,0-1.5-4.5-8-6,0,0-7.7-1.7-10.8-2.1Z" fill="#c50a27"></path><path d="M411.5,54.7c1-4.6,4.7-12.1,4.7-12.1,0,0,4.6-6.7,8.2-12.6s-5.5-12.6-5.5-12.6c-10.1-8.7-17.3-2.1-17.3-2.1l-19.1,14.1c7.7.3,12.2-2.7,12.2-2.7l8.2-6.9c5.5-3.8,12.2,1.8,12.2,1.8,0,0,6.4,3.9,3.1,10.7-3.3,6.8-5.4,11.1-5.4,11.1,0,0-2.6,7.1-1.4,11.4Z"></path><path d="M390.6,29.7s6.1-.7,9.7-3.7l3.6-2.6s2.7-2.4,7.7,1.7c0,0,5.2,3,2.6,8.6l-1.4,3s-1.6,3.6-1.6,6.2c0,0-1.4-2.1-.6-6.2.4-2.2,0-3.1-3.4-5.4s-4.2-2.2-8.2-1.6c0,0-4.5,1.2-8.3,0Z" fill="#c50a27"></path><path d="M261.8,48.8s-3.4-.3-1.6-3.2c1.7-2.7,5.7-2.5,5.7-2.5,0,0,3.8-.2,5.2,3s-2.1,3.1-2.1,3.1c0,0-5.6-.3-7.3-.3Z"></path><path d="M407.3,40.5c-7.9-7.3-21.9-11.2-21.9-11.2-11.7-3.7-20-2.2-20-2.2-8.7.2-10.7,6.3-10.7,6.3l-5.3,16.4s-1.7,5.5,4.1,9.1c-10.1-3.9-23.7-4.9-23.7-4.9l-35.4-3.9c-2.9-.3-2.7-2.9-2.7-2.9,0,0,0-1.3.3-4.5.3-3.2,3-3.1,3-3.1,14.7-.8,48.9-5.6,48.9-5.6,11.6-2.1,16.2-5.9,16.2-5.9-13.5,3.9-52.3,7.5-52.3,7.5-15.7.6-36.5,1.3-36.5,1.3,1,0,2,1.2,2,1.2,1.2,1.5,2.9.3,2.9.3,1.2-.8,2.6-1,2.6-1-1.8,1.2-2.3,3.4-2.3,3.4l-.7,4.9c-.8,5.7-6.2,5.2-6.2,5.2l-9-.3c-5-.2-3.3-5.1-3.3-5.1,1.5-4.5,8.4-4.1,8.4-4.1,5.6,0,7,3.8,7,5,0,1,.4.9.4.9.2,0,.6-.4.6-.4.7-1,.7-3,.7-3,0-7.9-9.7-7.6-9.7-7.6-10.3,0-10.4,9-10.4,9,0,7.5,3.8,7.4,3.8,7.4,0,0,23.7,1,50.7,2.6,25.1,1.4,65.8,7.1,65.8,7.1,7.3,1.5,7.3,8.1,6.9,10.4-.4,2.2-3.6,8.9-10.1,7.9-6.6-1-9-1.4-9-1.4-12.7-1.6-28.1-3.7-45.4-5.2-17.2-1.5-55-3-55-3-2.3,0-3,1.2-3,1.2l-.7,1.2c-1,1.9,2.5,1.9,2.5,1.9,15.7,0,45.3,1.9,56,2.8,10.6.9,45.2,4.5,45.2,4.5l25.4,3.6c4.8.4,8.3,0,12.5-4.3,4.2-4.2,7.7-13.1,7.7-13.1,2.3-6,3.8-13.7,3.8-13.7,1.7-9.3-4.1-14.8-4.1-14.8ZM404.2,69.4s-4.8,14.2-14.2,13.4l-12.6-.8c8-3,8.2-11.4,8.2-11.4,0-8.7-7.2-12.3-9.6-12.8-3.4-.5-18.6-2.8-18.6-2.8-6.4-.8-4.3-6.4-4.3-6.4l3.3-10.3s1.2-4.7,8.1-5.1c0,0,6.7-.4,19.9,3.6,0,0,7.4,2.2,17.8,8.2,0,0,5.2,2.4,5,8.4,0,0-.1,9.8-3.1,16Z"></path><g><path d="M395.4,51.2c.5-3.5-1.9-6.4-5.3-8.1-3.4-1.7-6.8-2.5-6.8-2.5,0,0-13.3-4-14.7,4.5,0,0-.8,6.3,4.3,7.5,5,1.1,6.5,1.3,8.9,1.9,2.4.6,4.3,1.5,7.8,2,3.4.5,5.3-1.8,5.8-5.3Z"></path><path d="M380.6,56.3s-1-.4-7.2-1.7c-1.1-.2-2-.5-2.8-.8h0c-3.5-1.3-4.7-3.5-6.2-6.2-1.8-3.4-5.2-4.7-5.2-4.7l-3.3-1.3,3.5.4c3.3.5,6.4-1.3,6.4-1.3l.4-.2c3.1-1.5,8.2-4.1,17.4-2,0,0,11.6,2.9,13.7,8.2,2.1,5.2,3.2,6.5,7.8,8.7,0,0-5.3-.5-9.2,2,0,0-3.1,2.1-6.5,1.1-3.4-1-8.9-2.4-8.9-2.4M380.8,55.3c.4,0,2.9.7,6.3,1.6,3.4.9,6.3,1.2,8.5-.5,2.3-1.9,6.1-1.8,6.1-1.8-.8-.4-3.2-1.5-5.4-7.1-2.1-5.4-12.8-7.9-12.8-7.9-9-2-13.9.4-16.9,1.9,0,0-3.1,1.9-5.4,1.6,2.4,1.2,4,4.1,4,4.1,1.4,2.6,2.5,4.6,5.7,5.8h0c.8.3,1.7.5,2.7.8,6.2,1.3,7.2,1.5,7.2,1.5"></path></g><path d="M256.5,54s.5-1.4,2.2-.4c1.7,1,3.3,2,6.8.6,0,0,1.5-.8,1.9-.2,0,0,.4.4-.8,1.1-1.4.9-5.7,5.2-4.8,12.2,0,0,.8,2.6-.2,2.8,0,0-1.4.3-2.6-1.9-1.2-2.2-4.1-9.7-2.6-14.3Z" fill="#c50a27"></path><path d="M263.3,69.4s.3,1.5,2.2.7c1.9-.8,3.6-1.5,6.8.4,0,0,1.4,1,1.9.4,0,0,.4-.3-.6-1.2-1.2-1-4.9-5.9-3-12.7,0,0,1.1-2.5.2-2.8,0,0-1.4-.5-2.9,1.5-1.5,2-5.5,9-4.6,13.8Z" fill="#c50a27"></path><path d="M382.6,58.9l7.9,1.2s2.9.4,2.6,4.9c-.2,3.8-.8,8.3-.8,8.3,0,0-.3,7.1-8.8,8,0,0,4.8-4,4.8-11.1,0,0,.4-7.2-5.6-11.3Z" fill="#c50a27"></path><path d="M405.6,62.5c-1.2,1.3-2,2.7-2,2.7l-3.8,7.3c-1.2,2.2-3.7,1.5-3.7,1.5-1.9-.3-1.8-2.1-1.8-2.1,0,0,.1-4.9.2-7.5,0-2.6-1.4-3.9-1.4-3.9,0,0,2.6,1.2,2.8,4.9l.2,4s-.1,1.2,1.1,1.4c0,0,1.1.5,2-.8.9-1.3,3-4.6,3-4.6,0,0,1.2-1.9,3.4-3Z" fill="#c50a27"></path><path d="M395.4,60.9s1.4,1,1.7,2.2c.3,1.2-.4,2.2,1.5,2.6,1.8.4,3-1.5,3-1.5,0,0,1-1.3,2.9-1.9,0,0-2.3.5-5,0-1.3-.2-2.8-.9-4.1-1.5Z" fill="#c50a27"></path><path d="M345,47.2l-31.9-3s29.6-.7,32.3-.9c2.3-.2,3.5-2.7,3.5-2.7,0,0,.3-.7,2.9-5,.9-1.4,1.8-2.4,2.7-3.2-1.7.9-9.1,4.4-19.4,5.5-11.8,1.2-20.9,2.1-20.9,2.1,0,0-3.2.1-3.5,2.2-.3,2.1-.4,3.3-.4,3.3,0,0,0,2.5,2.6,3s21.2,3.4,21.2,3.4c0,0,11.8,2.1,15.8,4.4-2.1-2.7-2.6-6.3-2.8-7.5-.4-1.7-2-1.7-2-1.7Z" fill="#c50a27"></path></g><g><g><path d="M20.6,28.9s.4-1.9,1-2.6c.5-.6,1.2-1.2,3-1.6,1.7-.4,3.5-.6,4.6-.5,1.1,0,2.8.8,3.5,1.1.8.3,2.1.7,2.8.8.9.2,2.2.3,2.2.3,0,0-2.9-1.3-4.1-2.3-1.2-1-3-3-5.9-2.7-7.7.7-17.2,5.5-17.2,5.5-2.5,1.4-2.9,4.1-3.2,5.6-.4,1.5-2,4.2-2,4.2,0,0,1.1-.9,1.6-1.5.5-.5,1.3-1.5,1.8-2.3.4-.7,1.4-2.2,2.3-2.9.8-.7,2.4-1.6,4.1-2.2,1.7-.6,2.6-.5,3.4-.4.8.2,2.3,1.5,2.3,1.5" fill="#c50a27"></path><path d="M16.7,17.8c-10.1,3-13.7,6.8-13.7,6.8-1,.9-.8,3.7-.9,4.8,0,1.1.1,3.5.1,5.5,0,2-1.2,8.8-1.2,8.8,0,0,1.4-3.4,2.1-4.5.7-1.1,1-3.8,1-3.8,0,0,1.2-5.5,1.5-6.3.2-.9.9-2.6,2.1-3.3,0,0,8.3-5.3,20-6.9,1.4-.2,3,.7,3.7,1.3.7.5,5.1,4,5.1,4,0,0,1.8,1.6,3,2,1.2.5,6,2.1,6,2.1,0,0-6.6-4.2-7.8-5.7-1.3-1.5-2.7-3.5-3.4-4.3-.7-.8-2.7-3-4-3.1-2.8-.2-13.7,2.8-13.7,2.8Z"></path></g><path d="M46.6,72c1-5.6,5.9-6.4,5.9-6.4l8.9-1.9c4.9-1,5.7-1.4,6.9-2.6,1.2-1.2,1.5-1.9,2.2-3.9.7-2,.5-7.3-1.8-14.1-2.2-6.9-4.5-9.1-6.4-11.2-1.8-1.9-3.9-2.9-7.9-3.9-4-1-7.8-1.4-16.1-1.1-8.3.4-9.4.8-15.4,2.4-9.2,2.4-17.9,8.5-17.9,8.5-3,1.9-4.1,5.6-4.3,6.9-.1,1.4-.2,4.5-.3,6.7,0,2.2.4,6.8.5,8.2.2,1.4,1,5.3,1.6,7.3,0,0,1.6,5.5,10.8,9.6,2.4,1.1,6.2,2.9,7.9,3.6,1.7.6,5.4,2.8,6.6,3.6,1.2.8,3.5,1.7,5.4,2.2,1.9.5,3.8.4,5.1.2,0,0,5.8-1.3,19.1-4.1,8.6-1.8,18.9-3,23.4-3.5,4.5-.6,10.7-1.3,16-1.9,5.3-.6,12.5-1.2,17.7-1.7,5.2-.4,10.4-.8,14.5-1,4.2-.2,14.3-.4,14.3-.4,0,0,7.5,0,14.1.2,6.5.1,8.7.5,10.2.7,1.5.2,1.1-1.1.8-2.1-.3-1-1.3-1-1.3-1h-1c0,0-4.8-.4-13.2-.6-8.4-.2-12.5-.2-15.2-.1-2.6,0-13.8.4-13.8.4l-6.6.5-13.3,1.2-17.2,1.8s-16.9,2.2-20.5,2.6c-3.6.4-14.2,1.6-16.3,2.4-4.3-2.9-3.4-7.5-3.4-7.5ZM45.7,66.1c-2.6,3.2-2.1,7.1-2.1,7.1.2,4.2,4.5,7,4.5,7,0,0-2.2.9-4.7,1.2-2.4.3-4.7.5-6.7.4-2-.2-3.8-.4-6.3-1.3-2.6-1-10.1-3.9-13.5-5.4-3.4-1.4-3.9-1.7-5.5-2.6-1.5-.9-5.5-3.7-6.3-9.1-.8-5.4-1.2-9.5-.9-11.9.2-2.3.8-5.9,3.4-7.6,0,0,9.8-6.1,24.5-8.4,0,0,21.1-3.3,26-1.3,0,0,3.1,1.3,6.3,7.4.6,1.2,1.6,3.5,2.2,5,.5,1.5,1.1,5,.9,6.7-.2,1.7-.4,3.4-2.3,5.1-2,1.7-3.2,1.9-5.3,2.6-2.1.7-6.2,1.5-7.7,1.8-4.3.7-6.4,3.5-6.4,3.5Z"></path><path d="M103.4,49.3c1.2-.5,1.5-.9,1.7-1.8.2-1.1.2-2.4,0-3.9-.2-1.5-.3-1.6-.6-2.7-.3-.9-.6-1.9-2.2-1.9-1.6,0-18.1-.5-26.9-1.2,0,0-4,0-9.1-2.6,5.1,3.7,6.8,7,6.8,7,.6.9,1.2,2,2,2.2.8.2,2,.4,3.9.3l24.7-.6-24.1,2.7s-1.2.2-2.6.5c-1.1.3-1.6.2-2,2.4,0,0-1,5.5-3.8,8.3,0,0,3.2-1.3,7.3-2.4,0,0,23.8-5.9,25-6.3Z" fill="#c50a27"></path><path d="M38.9,72.8s-.6-5.2,4.6-8.6c-8.9,2.3-15.8,3.7-15.8,3.7-12,2.4-17.2,1.6-17.2,1.6,0,0,8.1,4,14.7,6.4,3.4,1.2,5.6,2.2,9.2,3.4,2.4.8,6.3.8,8.5.7,0,0-3.7-2.5-3.9-7.1ZM30.5,71.1c-1,.4-1.2.8-.9,1.5.2.6,1.1,2.4,1.1,2.4l-2.5-2.3s-1.1-1-3.8-.8c0,0-4.3.3-5.4-.8,2.2.3,5.8.1,9.6-.7,4.2-.9,7.7-2.4,9.5-3.7-.8,2.5-6.6,4-7.6,4.4Z" fill="#c50a27"></path><path d="M52.5,44.6c-.8-3.8-4.7-5.5-9.1-5.6-4.4-.1-8.5.7-8.5.7,0,0-16.4,2.2-14.5,11.4,0,0,1.6,6.7,7.8,5.5,6-1.2,7.7-1.8,10.6-2.3,2.9-.5,5.4-.5,9.4-1.7,4-1.1,5.2-4.2,4.3-8ZM42.7,49.8c-2.8.5-4.8.3-11.8,2-6.6,1.6-7.1-2.5-7.1-2.5-.7-3.4,2.2-5.1,2.2-5.1-1.4,1.9-1.1,3.7-1.1,3.7,0,0,.4,2.9,4.4,1.9,4-1,11.4-2,11.4-2,0,0,4.6-.3,5.1-2.6.5-2.3-2.4-3.5-2.4-3.5,0,0,4.6-.2,5,3.3.3,3.5-2.9,4.3-5.7,4.8Z"></path><path d="M38.1,56.7s-1.3.1-8.6,1.7c-1.3.3-2.4.4-3.4.5h0c-4.5.3-6.6-1.3-9.3-3.3-3.4-2.5-7.7-2.2-7.7-2.2l-4.1.3,4-1.3c3.9-1,6.6-4.3,6.6-4.3l.3-.4c2.8-3,7.4-7.9,18.5-10.2,0,0,14.1-2.5,18.5,1.7,4.4,4.3,6.1,5,12.2,5.1,0,0-6,2-9.5,6.3,0,0-2.6,3.5-6.7,4.2-4.2.6-10.8,1.8-10.8,1.8M38,55.6c.4,0,3.5-.6,7.6-1.3,4.1-.7,7.5-1.7,9.2-4.6,1.8-3,6-4.7,6-4.7-1,0-4.2,0-8.8-4.5-4.5-4.5-17.3-1.9-17.3-1.9-10.8,2.2-15.3,7-18,9.9,0,0-2.7,3.4-5.3,4.2,3.1,0,6.1,2.2,6.1,2.2,2.6,2,4.5,3.4,8.6,3.1h0c1,0,2.1-.2,3.3-.5,7.4-1.6,8.6-1.9,8.6-1.9"></path><path d="M38.1,56.7" fill="#de002e"></path><path d="M154.2,41.7c-1.3-.2-2.8-.4-5-.4-2.2,0-3.1.1-6,.3-2.9.3-4.3.8-7.5,1.4-3.2.6-4.2,1.1-5.5,1.7-1.2.5-2.1,1.1-2.7,1.7-.6.6-1.8,1.5-2.5,1.9-.7.4-.4-.2-.3-.7.1-.5.3-1,.4-2,0-.9-.1-2.1-.2-3.4-.2-1.3-.5-3.6-.9-4.8-.4-1.2-1.5-2.1-1.5-2.1,0,0,0-.2.3,0,.4,0,.4.1,1,.5.6.4,1.2,1,1.7,1.7.5.6,1.1,2,1.5,2.7.4.7.8.8,1.8,1.1.9.2,2.7,0,2.7,0,0,0,3.7-.4,4.3-.4.6,0,3.7-.2,3.7-.2,0,0,7-.3,9-.4,2,0,4.8.2,5.8.3,1,.2,1.4.9,1.6,1.4.1.4-.3.2-1.6,0Z" fill="#e2007b"></path><path d="M172.8,50c-.8-4.2-1.3-5.5-2.1-7.1-2.8-6-9.3-9.6-16.3-10.5-8.7-1.1-17.1-1-17.1-1-4.5,0-11.5,0-19.5.5-8.1.4-19.3.6-22,.6-2.6,0-7.9.2-16.1.2-8.2,0-20.6-1.5-20.6-1.5,0,0,10.2,4.8,20.5,4.8,10.3,0,31.8.1,31.8.1,3.4.1,3.8.2,5.4,1,1.6.8,1.8,2.5,2,3.1.2.5.3,2.5.5,4.2.2,1.6-.1,2.4-.5,3-.4.6-.8,1.3-1.8,1.6,0,0-42.2,9.1-45,10.5-1.5.8-4.6,1.9-6.1,3.2,23.4-6.6,43-8.9,43-8.9.8-.1,17.3-2.6,31.5-4.3,9.9-1.1,18.8-1.5,20.2-1.5,1.8,0,7.4-.9,12.2,1.9Z"></path><path d="M127.3,45.4c1.7-2.1,3.5-2.3,3.5-2.3l27.4-2.6s-24.6.6-27.6.6c-3.1,0-4-1.7-4-1.7,0,0-.3-.6-1.1-1.9-1-1.6-5.7-1.6-5.7-1.6h0c1.4.1,2,.3,3.1.9,1.6.8,1.8,2.5,2,3.1.2.5.3,2.5.5,4.2.2,1.6-.1,2.4-.5,3-.4.6-.8,1.3-1.8,1.6,0,0,1.9-.2,2.8-1.4.9-1.2,1.4-2,1.4-2Z" fill="#fff"></path><path d="M168.5,62c-.4-3.1-3.7-3.8-3.7-3.8-4.6-1-13.7-1.3-31.7-.2-5.7.4-14.2,1.3-23.4,2.4-2.1-2.9-7.1-4.5-12.8-3.8-5.9.7-10.5,3.7-11.6,7.2-10.7,1.6-19.9,3.1-23.9,4-10.4,2.3-11.9,8.7-11.9,8.7,3.8-5.1,12.3-6.4,12.3-6.4,0,0,10.4-1.6,23.5-3.4,1.1,3.9,6.9,6.4,13.6,5.6,6.9-.8,12.1-4.9,11.9-9.1,9.3-1.2,17.7-2.2,22.6-2.6,7.9-.6,14.6-.9,19.7-.9,6.7,0,10.6.4,10.6.4,4.5.4,4.7,5.1,4.7,5.1.5-1.5,0-3.2,0-3.2ZM98.8,71.6c-5,.6-9.5-1.8-10.4-5.4,0-.2,0-.4-.1-.6,0-.8,0-1.6.2-2.3.9-3,4.3-5.5,8.6-6.1,4.1-.5,7.9,1,9.6,3.6.5.7.8,1.6.9,2.4,0,.1,0,.2,0,.3.2,3.8-3.6,7.4-8.8,8Z" fill="#c50a27"></path><path d="M103.9,63.7c-.1-.9-.4-1.7-.8-2.4-1.2-1.9-3.4-3.1-5.9-2.8-2.5.3-4.4,2.1-5.1,4.3-.2.7-.3,1.5-.2,2.4,0,.2,0,.4,0,.6.7,3,3.5,5.1,6.6,4.7,3.2-.4,5.5-3.2,5.3-6.3,0-.1,0-.2,0-.4ZM97.9,67c-1.5.2-2.9-.5-3.7-1.6-.4-.6-.7-1.2-.8-2,0-.3,0-.6,0-.9.2-1.9,1.6-3.5,3.6-3.7,1.9-.2,3.7.9,4.3,2.6.1.3.2.6.2,1,0,.7,0,1.4-.3,2-.5,1.4-1.8,2.4-3.3,2.6Z" fill="#c50a27"></path></g></g></g><path d="M226.5.5" fill="#c50a27"></path></svg> 